<mxfile host="app.diagrams.net" agent="Mozilla/5.0 (Windows NT 10.0; Win64; x64) AppleWebKit/537.36 (KHTML, like Gecko) Chrome/134.0.0.0 Safari/537.36 Edg/134.0.0.0" version="24.8.6">
  <diagram name="Page-1" id="b520641d-4fe3-3701-9064-5fc419738815">
    <mxGraphModel dx="2822" dy="951" grid="1" gridSize="10" guides="1" tooltips="1" connect="1" arrows="1" fold="1" page="1" pageScale="1" pageWidth="1100" pageHeight="850" background="none" math="0" shadow="0">
      <root>
        <mxCell id="0" />
        <mxCell id="1" parent="0" />
        <mxCell id="21ea969265ad0168-14" value="消息中心模块" style="swimlane;html=1;fontStyle=0;childLayout=stackLayout;horizontal=1;startSize=26;fillColor=#e0e0e0;horizontalStack=0;resizeParent=1;resizeLast=0;collapsible=1;marginBottom=0;swimlaneFillColor=#ffffff;align=center;rounded=1;shadow=0;comic=0;labelBackgroundColor=none;strokeWidth=1;fontFamily=Verdana;fontSize=12" parent="1" vertex="1">
          <mxGeometry x="-215" y="410" width="160" height="110" as="geometry">
            <mxRectangle x="160" y="266" width="90" height="30" as="alternateBounds" />
          </mxGeometry>
        </mxCell>
        <mxCell id="21ea969265ad0168-15" value="推送信息&lt;div&gt;&lt;br&gt;&lt;/div&gt;" style="text;html=1;strokeColor=none;fillColor=none;spacingLeft=4;spacingRight=4;whiteSpace=wrap;overflow=hidden;rotatable=0;points=[[0,0.5],[1,0.5]];portConstraint=eastwest;" parent="21ea969265ad0168-14" vertex="1">
          <mxGeometry y="26" width="160" height="26" as="geometry" />
        </mxCell>
        <mxCell id="21ea969265ad0168-16" value="&lt;font color=&quot;#ffffff&quot;&gt;聊天信息&lt;/font&gt;" style="text;html=1;strokeColor=none;fillColor=none;spacingLeft=4;spacingRight=4;whiteSpace=wrap;overflow=hidden;rotatable=0;points=[[0,0.5],[1,0.5]];portConstraint=eastwest;" parent="21ea969265ad0168-14" vertex="1">
          <mxGeometry y="52" width="160" height="26" as="geometry" />
        </mxCell>
        <mxCell id="w3c_cY4_Ui-g_4uH-KHs-50" value="聊天信息" style="text;html=1;strokeColor=none;fillColor=none;spacingLeft=4;spacingRight=4;whiteSpace=wrap;overflow=hidden;rotatable=0;points=[[0,0.5],[1,0.5]];portConstraint=eastwest;" vertex="1" parent="21ea969265ad0168-14">
          <mxGeometry y="78" width="160" height="26" as="geometry" />
        </mxCell>
        <mxCell id="w3c_cY4_Ui-g_4uH-KHs-51" value="增加私聊消息" style="edgeStyle=orthogonalEdgeStyle;rounded=0;orthogonalLoop=1;jettySize=auto;html=1;exitX=1;exitY=0.5;exitDx=0;exitDy=0;entryX=0;entryY=0.5;entryDx=0;entryDy=0;" edge="1" parent="1" source="21ea969265ad0168-18" target="w3c_cY4_Ui-g_4uH-KHs-27">
          <mxGeometry relative="1" as="geometry" />
        </mxCell>
        <mxCell id="21ea969265ad0168-18" value="私聊模块" style="swimlane;html=1;fontStyle=0;childLayout=stackLayout;horizontal=1;startSize=26;fillColor=#e0e0e0;horizontalStack=0;resizeParent=1;resizeLast=0;collapsible=1;marginBottom=0;swimlaneFillColor=#ffffff;align=center;rounded=1;shadow=0;comic=0;labelBackgroundColor=none;strokeWidth=1;fontFamily=Verdana;fontSize=12" parent="1" vertex="1">
          <mxGeometry x="-805" y="460" width="160" height="30" as="geometry" />
        </mxCell>
        <mxCell id="w3c_cY4_Ui-g_4uH-KHs-12" value="在线主动收取消息" style="edgeStyle=orthogonalEdgeStyle;rounded=0;orthogonalLoop=1;jettySize=auto;html=1;entryX=0.5;entryY=0;entryDx=0;entryDy=0;" edge="1" parent="1" source="21ea969265ad0168-22" target="21ea969265ad0168-14">
          <mxGeometry relative="1" as="geometry" />
        </mxCell>
        <mxCell id="w3c_cY4_Ui-g_4uH-KHs-53" value="发送私聊消息" style="edgeStyle=orthogonalEdgeStyle;rounded=0;orthogonalLoop=1;jettySize=auto;html=1;entryX=0.5;entryY=0;entryDx=0;entryDy=0;" edge="1" parent="1" source="21ea969265ad0168-22" target="21ea969265ad0168-18">
          <mxGeometry relative="1" as="geometry" />
        </mxCell>
        <mxCell id="w3c_cY4_Ui-g_4uH-KHs-54" value="发送聊天室消息" style="edgeStyle=orthogonalEdgeStyle;rounded=0;orthogonalLoop=1;jettySize=auto;html=1;entryX=0.5;entryY=1;entryDx=0;entryDy=0;" edge="1" parent="1" source="21ea969265ad0168-22" target="21ea969265ad0168-26">
          <mxGeometry relative="1" as="geometry" />
        </mxCell>
        <mxCell id="21ea969265ad0168-22" value="实时通知模块" style="swimlane;html=1;fontStyle=0;childLayout=stackLayout;horizontal=1;startSize=26;fillColor=#e0e0e0;horizontalStack=0;resizeParent=1;resizeLast=0;collapsible=1;marginBottom=0;swimlaneFillColor=#ffffff;align=center;rounded=1;shadow=0;comic=0;labelBackgroundColor=none;strokeWidth=1;fontFamily=Verdana;fontSize=12" parent="1" vertex="1">
          <mxGeometry x="-805" y="355" width="160" height="60" as="geometry">
            <mxRectangle x="560" y="266" width="90" height="30" as="alternateBounds" />
          </mxGeometry>
        </mxCell>
        <mxCell id="21ea969265ad0168-23" value="API Gateway" style="text;html=1;strokeColor=none;fillColor=none;spacingLeft=4;spacingRight=4;whiteSpace=wrap;overflow=hidden;rotatable=0;points=[[0,0.5],[1,0.5]];portConstraint=eastwest;align=center;" parent="21ea969265ad0168-22" vertex="1">
          <mxGeometry y="26" width="160" height="34" as="geometry" />
        </mxCell>
        <mxCell id="w3c_cY4_Ui-g_4uH-KHs-52" value="增加公共聊天室消息" style="edgeStyle=orthogonalEdgeStyle;rounded=0;orthogonalLoop=1;jettySize=auto;html=1;exitX=1;exitY=0.5;exitDx=0;exitDy=0;entryX=0.5;entryY=0;entryDx=0;entryDy=0;" edge="1" parent="1" source="21ea969265ad0168-26" target="w3c_cY4_Ui-g_4uH-KHs-27">
          <mxGeometry relative="1" as="geometry" />
        </mxCell>
        <mxCell id="21ea969265ad0168-26" value="聊天室模块" style="swimlane;html=1;fontStyle=0;childLayout=stackLayout;horizontal=1;startSize=26;fillColor=#e0e0e0;horizontalStack=0;resizeParent=1;resizeLast=0;collapsible=1;marginBottom=0;swimlaneFillColor=#ffffff;align=center;rounded=1;shadow=0;comic=0;labelBackgroundColor=none;strokeWidth=1;fontFamily=Verdana;fontSize=12" parent="1" vertex="1">
          <mxGeometry x="-805" y="280" width="160" height="30" as="geometry" />
        </mxCell>
        <mxCell id="w3c_cY4_Ui-g_4uH-KHs-41" value="编辑推送消息" style="edgeStyle=orthogonalEdgeStyle;rounded=0;orthogonalLoop=1;jettySize=auto;html=1;exitX=1;exitY=0.5;exitDx=0;exitDy=0;entryX=0;entryY=0.5;entryDx=0;entryDy=0;" edge="1" parent="1" source="w3c_cY4_Ui-g_4uH-KHs-1" target="w3c_cY4_Ui-g_4uH-KHs-39">
          <mxGeometry relative="1" as="geometry" />
        </mxCell>
        <mxCell id="w3c_cY4_Ui-g_4uH-KHs-1" value="admin" style="rounded=0;whiteSpace=wrap;html=1;" vertex="1" parent="1">
          <mxGeometry x="-1045" y="530" width="90" height="30" as="geometry" />
        </mxCell>
        <mxCell id="w3c_cY4_Ui-g_4uH-KHs-7" value="登录鉴权" style="edgeStyle=orthogonalEdgeStyle;rounded=0;orthogonalLoop=1;jettySize=auto;html=1;exitX=1;exitY=0.5;exitDx=0;exitDy=0;entryX=0;entryY=0.5;entryDx=0;entryDy=0;" edge="1" parent="1" source="w3c_cY4_Ui-g_4uH-KHs-2" target="21ea969265ad0168-22">
          <mxGeometry relative="1" as="geometry" />
        </mxCell>
        <mxCell id="w3c_cY4_Ui-g_4uH-KHs-2" value="user" style="rounded=0;whiteSpace=wrap;html=1;" vertex="1" parent="1">
          <mxGeometry x="-1045" y="370" width="90" height="30" as="geometry" />
        </mxCell>
        <mxCell id="w3c_cY4_Ui-g_4uH-KHs-46" value="更新消息中心推送" style="edgeStyle=orthogonalEdgeStyle;rounded=0;orthogonalLoop=1;jettySize=auto;html=1;exitX=1;exitY=0.5;exitDx=0;exitDy=0;entryX=0;entryY=0.5;entryDx=0;entryDy=0;" edge="1" parent="1" source="w3c_cY4_Ui-g_4uH-KHs-27" target="21ea969265ad0168-15">
          <mxGeometry relative="1" as="geometry" />
        </mxCell>
        <mxCell id="w3c_cY4_Ui-g_4uH-KHs-47" value="更新消息中心聊天" style="edgeStyle=orthogonalEdgeStyle;rounded=0;orthogonalLoop=1;jettySize=auto;html=1;exitX=1;exitY=0.5;exitDx=0;exitDy=0;entryX=0;entryY=0.5;entryDx=0;entryDy=0;" edge="1" parent="1" source="w3c_cY4_Ui-g_4uH-KHs-27" target="w3c_cY4_Ui-g_4uH-KHs-50">
          <mxGeometry relative="1" as="geometry" />
        </mxCell>
        <mxCell id="w3c_cY4_Ui-g_4uH-KHs-27" value="消息数据库" style="shape=process;whiteSpace=wrap;html=1;backgroundOutline=1;" vertex="1" parent="1">
          <mxGeometry x="-485" y="460" width="120" height="30" as="geometry" />
        </mxCell>
        <mxCell id="w3c_cY4_Ui-g_4uH-KHs-37" value="获取聊天室成员列表" style="edgeStyle=orthogonalEdgeStyle;rounded=0;orthogonalLoop=1;jettySize=auto;html=1;exitX=0.5;exitY=0;exitDx=0;exitDy=0;entryX=0;entryY=0.5;entryDx=0;entryDy=0;" edge="1" parent="1" source="21ea969265ad0168-26" target="w3c_cY4_Ui-g_4uH-KHs-30">
          <mxGeometry relative="1" as="geometry" />
        </mxCell>
        <mxCell id="w3c_cY4_Ui-g_4uH-KHs-30" value="组成员数据库" style="shape=process;whiteSpace=wrap;html=1;backgroundOutline=1;" vertex="1" parent="1">
          <mxGeometry x="-485" y="230" width="120" height="30" as="geometry" />
        </mxCell>
        <mxCell id="w3c_cY4_Ui-g_4uH-KHs-42" value="发布推送消息" style="edgeStyle=orthogonalEdgeStyle;rounded=0;orthogonalLoop=1;jettySize=auto;html=1;entryX=0.5;entryY=1;entryDx=0;entryDy=0;" edge="1" parent="1" source="w3c_cY4_Ui-g_4uH-KHs-39" target="w3c_cY4_Ui-g_4uH-KHs-27">
          <mxGeometry relative="1" as="geometry" />
        </mxCell>
        <mxCell id="w3c_cY4_Ui-g_4uH-KHs-39" value="推送模块" style="swimlane;html=1;fontStyle=0;childLayout=stackLayout;horizontal=1;startSize=26;fillColor=#e0e0e0;horizontalStack=0;resizeParent=1;resizeLast=0;collapsible=1;marginBottom=0;swimlaneFillColor=#ffffff;align=center;rounded=1;shadow=0;comic=0;labelBackgroundColor=none;strokeWidth=1;fontFamily=Verdana;fontSize=12" vertex="1" parent="1">
          <mxGeometry x="-805" y="530" width="160" height="30" as="geometry" />
        </mxCell>
      </root>
    </mxGraphModel>
  </diagram>
</mxfile>
